<svg width="60" height="60" viewBox="0 0 60 60" fill="none" xmlns="http://www.w3.org/2000/svg">
<circle cx="30" cy="30" r="30" fill="#FE947A"/>
<path d="M22.5 35.625H24.0004V36.75H22.5V35.625Z" fill="white"/>
<path d="M36.375 32.25C35.5592 32.25 34.7616 32.4919 34.0833 32.9452C33.4049 33.3984 32.8762 34.0427 32.564 34.7964C32.2518 35.5502 32.1701 36.3796 32.3293 37.1797C32.4884 37.9799 32.8813 38.7149 33.4582 39.2918C34.0351 39.8687 34.7701 40.2616 35.5703 40.4207C36.3704 40.5799 37.1998 40.4982 37.9536 40.186C38.7073 39.8738 39.3516 39.3451 39.8048 38.6667C40.2581 37.9884 40.5 37.1908 40.5 36.375C40.4987 35.2814 40.0637 34.2329 39.2904 33.4596C38.5171 32.6863 37.4686 32.2513 36.375 32.25ZM39.072 35.3333L35.8901 38.5151C35.8198 38.5854 35.7244 38.6249 35.625 38.6249C35.5256 38.6249 35.4302 38.5854 35.3599 38.5151L33.7691 36.924C33.7008 36.8533 33.663 36.7585 33.6639 36.6602C33.6647 36.5619 33.7042 36.4678 33.7737 36.3983C33.8432 36.3288 33.9373 36.2894 34.0356 36.2885C34.1339 36.2876 34.2287 36.3254 34.2994 36.3937L35.625 37.7197L38.5418 34.803C38.6125 34.7347 38.7072 34.6969 38.8055 34.6977C38.9039 34.6986 38.9979 34.738 39.0674 34.8076C39.137 34.8771 39.1764 34.9712 39.1773 35.0695C39.1781 35.1678 39.1403 35.2625 39.072 35.3333Z" fill="white"/>
<path d="M27 28.875H28.5004V30H27V28.875Z" fill="white"/>
<path d="M31.5 28.875H33V30H31.5V28.875Z" fill="white"/>
<path d="M22.5 32.25H24.0004V33.375H22.5V32.25Z" fill="white"/>
<path d="M27 32.25H28.5004V33.375H27V32.25Z" fill="white"/>
<path d="M22.5 28.875H24.0004V30H22.5V28.875Z" fill="white"/>
<path d="M24 23.25C24.1987 23.2494 24.3892 23.1702 24.5297 23.0297C24.6702 22.8892 24.7494 22.6987 24.75 22.5V20.25C24.75 20.0511 24.671 19.8603 24.5303 19.7197C24.3897 19.579 24.1989 19.5 24 19.5C23.8011 19.5 23.6103 19.579 23.4697 19.7197C23.329 19.8603 23.25 20.0511 23.25 20.25V22.5C23.2506 22.6987 23.3298 22.8892 23.4703 23.0297C23.6108 23.1702 23.8013 23.2494 24 23.25Z" fill="white"/>
<path d="M30 23.25C30.1987 23.2494 30.3892 23.1702 30.5297 23.0297C30.6702 22.8892 30.7494 22.6987 30.75 22.5V20.25C30.75 20.0511 30.671 19.8603 30.5303 19.7197C30.3897 19.579 30.1989 19.5 30 19.5C29.8011 19.5 29.6103 19.579 29.4697 19.7197C29.329 19.8603 29.25 20.0511 29.25 20.25V22.5C29.2506 22.6987 29.3298 22.8892 29.4703 23.0297C29.6108 23.1702 29.8013 23.2494 30 23.25Z" fill="white"/>
<path d="M36 23.25C36.1987 23.2494 36.3892 23.1702 36.5297 23.0297C36.6702 22.8892 36.7494 22.6987 36.75 22.5V20.25C36.75 20.0511 36.671 19.8603 36.5303 19.7197C36.3897 19.579 36.1989 19.5 36 19.5C35.8011 19.5 35.6103 19.579 35.4697 19.7197C35.329 19.8603 35.25 20.0511 35.25 20.25V22.5C35.2506 22.6987 35.3298 22.8892 35.4703 23.0297C35.6108 23.1702 35.8013 23.2494 36 23.25Z" fill="white"/>
<path d="M36 28.875H37.5V30H36V28.875Z" fill="white"/>
<path d="M39.375 21.75H37.5V22.5C37.5 22.8978 37.342 23.2794 37.0607 23.5607C36.7794 23.842 36.3978 24 36 24C35.6022 24 35.2206 23.842 34.9393 23.5607C34.658 23.2794 34.5 22.8978 34.5 22.5V21.75H31.5V22.5C31.5 22.8978 31.342 23.2794 31.0607 23.5607C30.7794 23.842 30.3978 24 30 24C29.6022 24 29.2206 23.842 28.9393 23.5607C28.658 23.2794 28.5 22.8978 28.5 22.5V21.75H25.5V22.5C25.5 22.8978 25.342 23.2794 25.0607 23.5607C24.7794 23.842 24.3978 24 24 24C23.6022 24 23.2206 23.842 22.9393 23.5607C22.658 23.2794 22.5 22.8978 22.5 22.5V21.75H20.625C20.3269 21.7509 20.0413 21.8697 19.8305 22.0805C19.6197 22.2913 19.5009 22.5769 19.5 22.875V25.5H40.5V22.875C40.4991 22.5769 40.3803 22.2913 40.1695 22.0805C39.9587 21.8697 39.6731 21.7509 39.375 21.75Z" fill="white"/>
<path d="M27 35.625H28.5004V36.75H27V35.625Z" fill="white"/>
<path d="M19.5 26.25V37.875C19.5009 38.1731 19.6197 38.4587 19.8305 38.6695C20.0413 38.8803 20.3269 38.9991 20.625 39H32.2736C31.9314 38.4598 31.6989 37.8576 31.5894 37.2276C31.4799 36.5976 31.4955 35.9521 31.6355 35.3282C31.7754 34.7042 32.0368 34.1139 32.4049 33.591C32.773 33.0681 33.2404 32.6228 33.7806 32.2806C34.3207 31.9383 34.923 31.7058 35.553 31.5963C36.183 31.4868 36.8284 31.5025 37.4524 31.6424C38.0763 31.7823 38.6666 32.0438 39.1895 32.4118C39.7124 32.7799 40.1577 33.2473 40.5 33.7875V26.25H19.5ZM24.75 36.75C24.75 36.9489 24.671 37.1397 24.5303 37.2803C24.3897 37.421 24.1989 37.5 24 37.5H22.5C22.3011 37.5 22.1103 37.421 21.9697 37.2803C21.829 37.1397 21.75 36.9489 21.75 36.75V35.625C21.75 35.4261 21.829 35.2353 21.9697 35.0947C22.1103 34.954 22.3011 34.875 22.5 34.875H24C24.1989 34.875 24.3897 34.954 24.5303 35.0947C24.671 35.2353 24.75 35.4261 24.75 35.625V36.75ZM24.75 33.375C24.75 33.5739 24.671 33.7647 24.5303 33.9053C24.3897 34.046 24.1989 34.125 24 34.125H22.5C22.3011 34.125 22.1103 34.046 21.9697 33.9053C21.829 33.7647 21.75 33.5739 21.75 33.375V32.25C21.75 32.0511 21.829 31.8603 21.9697 31.7197C22.1103 31.579 22.3011 31.5 22.5 31.5H24C24.1989 31.5 24.3897 31.579 24.5303 31.7197C24.671 31.8603 24.75 32.0511 24.75 32.25V33.375ZM24.75 30C24.75 30.1989 24.671 30.3897 24.5303 30.5303C24.3897 30.671 24.1989 30.75 24 30.75H22.5C22.3011 30.75 22.1103 30.671 21.9697 30.5303C21.829 30.3897 21.75 30.1989 21.75 30V28.875C21.75 28.6761 21.829 28.4853 21.9697 28.3447C22.1103 28.204 22.3011 28.125 22.5 28.125H24C24.1989 28.125 24.3897 28.204 24.5303 28.3447C24.671 28.4853 24.75 28.6761 24.75 28.875V30ZM29.25 36.75C29.25 36.9489 29.171 37.1397 29.0303 37.2803C28.8897 37.421 28.6989 37.5 28.5 37.5H27C26.8011 37.5 26.6103 37.421 26.4697 37.2803C26.329 37.1397 26.25 36.9489 26.25 36.75V35.625C26.25 35.4261 26.329 35.2353 26.4697 35.0947C26.6103 34.954 26.8011 34.875 27 34.875H28.5C28.6989 34.875 28.8897 34.954 29.0303 35.0947C29.171 35.2353 29.25 35.4261 29.25 35.625V36.75ZM29.25 33.375C29.25 33.5739 29.171 33.7647 29.0303 33.9053C28.8897 34.046 28.6989 34.125 28.5 34.125H27C26.8011 34.125 26.6103 34.046 26.4697 33.9053C26.329 33.7647 26.25 33.5739 26.25 33.375V32.25C26.25 32.0511 26.329 31.8603 26.4697 31.7197C26.6103 31.579 26.8011 31.5 27 31.5H28.5C28.6989 31.5 28.8897 31.579 29.0303 31.7197C29.171 31.8603 29.25 32.0511 29.25 32.25V33.375ZM29.25 30C29.25 30.1989 29.171 30.3897 29.0303 30.5303C28.8897 30.671 28.6989 30.75 28.5 30.75H27C26.8011 30.75 26.6103 30.671 26.4697 30.5303C26.329 30.3897 26.25 30.1989 26.25 30V28.875C26.25 28.6761 26.329 28.4853 26.4697 28.3447C26.6103 28.204 26.8011 28.125 27 28.125H28.5C28.6989 28.125 28.8897 28.204 29.0303 28.3447C29.171 28.4853 29.25 28.6761 29.25 28.875V30ZM33 32.25H31.5V33.375C31.5995 33.375 31.6948 33.4145 31.7652 33.4848C31.8355 33.5552 31.875 33.6505 31.875 33.75C31.875 33.8495 31.8355 33.9448 31.7652 34.0152C31.6948 34.0855 31.5995 34.125 31.5 34.125C31.3011 34.125 31.1103 34.046 30.9697 33.9053C30.829 33.7647 30.75 33.5739 30.75 33.375V32.25C30.75 32.0511 30.829 31.8603 30.9697 31.7197C31.1103 31.579 31.3011 31.5 31.5 31.5H33C33.0995 31.5 33.1948 31.5395 33.2652 31.6098C33.3355 31.6802 33.375 31.7755 33.375 31.875C33.375 31.9745 33.3355 32.0698 33.2652 32.1402C33.1948 32.2105 33.0995 32.25 33 32.25ZM33.75 30C33.75 30.1989 33.671 30.3897 33.5303 30.5303C33.3897 30.671 33.1989 30.75 33 30.75H31.5C31.3011 30.75 31.1103 30.671 30.9697 30.5303C30.829 30.3897 30.75 30.1989 30.75 30V28.875C30.75 28.6761 30.829 28.4853 30.9697 28.3447C31.1103 28.204 31.3011 28.125 31.5 28.125H33C33.1989 28.125 33.3897 28.204 33.5303 28.3447C33.671 28.4853 33.75 28.6761 33.75 28.875V30ZM38.25 30C38.25 30.1989 38.171 30.3897 38.0303 30.5303C37.8897 30.671 37.6989 30.75 37.5 30.75H36C35.8011 30.75 35.6103 30.671 35.4697 30.5303C35.329 30.3897 35.25 30.1989 35.25 30V28.875C35.25 28.6761 35.329 28.4853 35.4697 28.3447C35.6103 28.204 35.8011 28.125 36 28.125H37.5C37.6989 28.125 37.8897 28.204 38.0303 28.3447C38.171 28.4853 38.25 28.6761 38.25 28.875V30Z" fill="white"/>
</svg>
