<svg width="60" height="60" viewBox="0 0 60 60" fill="none" xmlns="http://www.w3.org/2000/svg">
<circle cx="30" cy="30" r="30" fill="#FA597D"/>
<path fill-rule="evenodd" clip-rule="evenodd" d="M32.0423 21.6492C32.1567 21.6447 32.2717 21.6425 32.3871 21.6425C37.1896 21.6425 41.1064 25.5592 41.1064 30.3618C41.1064 35.1643 37.1896 39.081 32.3871 39.081C29.4729 39.081 26.8848 37.6388 25.3002 35.4316L26.5159 33.7746C27.6921 35.7943 29.8807 37.1513 32.3871 37.1513C36.1378 37.1513 39.1767 34.1124 39.1767 30.3618C39.1767 26.6111 36.1378 23.5722 32.3871 23.5722C30.2574 23.5722 28.3573 24.552 27.1126 26.0855C27.7558 24.5225 29.0178 23.1375 31.487 22.5033C31.7856 22.4267 32.0072 22.1758 32.0465 21.8701C32.0562 21.7954 32.0544 21.7211 32.0423 21.6492ZM31.9166 27.7935C31.9166 27.5337 32.1274 27.3229 32.3871 27.3229C32.6469 27.3229 32.8577 27.5337 32.8577 27.7935V30.09L34.3386 30.9447C34.5635 31.0746 34.6407 31.3626 34.5109 31.5876C34.381 31.8125 34.093 31.8897 33.8681 31.7599L32.1519 30.7693C32.0062 30.6853 31.9166 30.5299 31.9166 30.3618V27.7935ZM31.9166 24.9562C31.9166 24.6965 32.1274 24.4856 32.3871 24.4856C32.6469 24.4856 32.8577 24.6965 32.8577 24.9562V25.5415C32.8577 25.8012 32.6469 26.012 32.3871 26.012C32.1274 26.012 31.9166 25.8012 31.9166 25.5415V24.9562ZM35.8782 26.2052C36.0619 26.0216 36.3601 26.0216 36.5437 26.2052C36.7274 26.3888 36.7274 26.6871 36.5437 26.8707L36.1285 27.2859C35.9449 27.4696 35.6467 27.4696 35.463 27.2859C35.2793 27.1023 35.2793 26.804 35.463 26.6204L35.8782 26.2052ZM36.5437 33.8528C36.7274 34.0365 36.7274 34.3347 36.5437 34.5184C36.3601 34.702 36.0619 34.702 35.8782 34.5184L35.463 34.1031C35.2793 33.9195 35.2793 33.6213 35.463 33.4376C35.6467 33.254 35.9449 33.254 36.1285 33.4376L36.5437 33.8528ZM28.8961 34.5184C28.7124 34.702 28.4142 34.702 28.2305 34.5184C28.0469 34.3347 28.0469 34.0365 28.2305 33.8528L28.6458 33.4376C28.8294 33.254 29.1276 33.254 29.3113 33.4376C29.4949 33.6213 29.4949 33.9195 29.3113 34.1031L28.8961 34.5184ZM28.2305 26.8707C28.0469 26.6871 28.0469 26.3888 28.2305 26.2052C28.4142 26.0216 28.7124 26.0216 28.8961 26.2052L29.3113 26.6204C29.4949 26.804 29.4949 27.1023 29.3113 27.2859C29.1276 27.4696 28.8294 27.4696 28.6458 27.2859L28.2305 26.8707ZM37.7947 29.8912C38.0544 29.8912 38.2653 30.102 38.2653 30.3618C38.2653 30.6215 38.0544 30.8324 37.7947 30.8324H37.2075C36.9477 30.8324 36.7369 30.6215 36.7369 30.3618C36.7369 30.102 36.9477 29.8912 37.2075 29.8912H37.7947ZM32.8577 35.7673C32.8577 36.0271 32.6469 36.2379 32.3871 36.2379C32.1274 36.2379 31.9166 36.0271 31.9166 35.7673V35.1821C31.9166 34.9223 32.1274 34.7115 32.3871 34.7115C32.6469 34.7115 32.8577 34.9223 32.8577 35.1821V35.7673ZM25.6966 30.5005H27.3339C27.4581 30.5005 27.5717 30.5703 27.6278 30.681C27.6838 30.7918 27.6729 30.9247 27.5995 31.0248L23.811 36.1886C23.7511 36.2702 23.6571 36.3198 23.5559 36.323C23.4548 36.3262 23.3577 36.2828 23.2928 36.2052L18.9709 31.0413C18.8887 30.9432 18.8709 30.8064 18.925 30.6905C18.9791 30.5746 19.0955 30.5005 19.2235 30.5005H20.7173C20.7173 22.0886 26.9014 19.3306 31.2998 21.7741C26.0358 23.1258 25.6966 27.5397 25.6966 30.5005Z" fill="white"/>
</svg>
