<svg width="22" height="14" viewBox="0 0 22 14" fill="none" xmlns="http://www.w3.org/2000/svg">
<path fill-rule="evenodd" clip-rule="evenodd" d="M21.7071 2.70693C22.0976 2.31643 22.0976 1.68342 21.7071 1.29292L20.7071 0.292924C20.3166 -0.0975761 19.6836 -0.0975761 19.2931 0.292924L14.0001 5.58592L10.7071 2.29292C10.3166 1.90242 9.68362 1.90242 9.29312 2.29292L4.00012 7.58592L2.70712 6.29292C2.44213 6.02792 2.05162 5.93342 1.69512 6.04742C1.33812 6.16192 1.07512 6.46592 1.01362 6.83542L0.0136204 12.8354C-0.0393791 13.1539 0.0646229 13.4784 0.293123 13.7069C0.521624 13.9354 0.846121 14.0394 1.16462 13.9864L7.16462 12.9864C7.53412 12.9249 7.83812 12.6619 7.95262 12.3049C8.06662 11.9484 7.97213 11.5579 7.70712 11.2929L6.41413 9.99992L10.0001 6.41393L13.2931 9.70692C13.6836 10.0974 14.3166 10.0974 14.7071 9.70692L21.7071 2.70693Z" fill="#F64C4C"/>
</svg>
