<svg width="60" height="60" viewBox="0 0 60 60" fill="none" xmlns="http://www.w3.org/2000/svg">
<circle cx="30" cy="30" r="30" fill="#1083FF"/>
<g clip-path="url(#clip0_429_2347)">
<path fill-rule="evenodd" clip-rule="evenodd" d="M19.5551 34.0825H21.438C21.5671 34.0825 21.6723 34.1878 21.6723 34.3168V38.3596C21.6723 38.4887 21.5671 38.594 21.438 38.594H19.5551C19.426 38.594 19.3207 38.4887 19.3207 38.3596V34.3168C19.3207 34.1878 19.426 34.0825 19.5551 34.0825ZM37.3556 32.2147C37.7905 32.3182 38.2059 32.4907 38.5866 32.7251L39.3865 32.3698L40.3292 33.3126L39.9741 34.1122C40.2085 34.4929 40.381 34.9085 40.4845 35.3435L41.3006 35.6576V36.9908L40.4843 37.305C40.3808 37.7399 40.2084 38.1553 39.974 38.536L40.3292 39.3359L39.3865 40.2786L38.5869 39.9235C38.2061 40.158 37.7906 40.3304 37.3555 40.4339L37.0415 41.25H35.7082L35.394 40.4337C34.9591 40.3302 34.5437 40.1578 34.1631 39.9234L33.3632 40.2786L32.4204 39.3359L32.7756 38.5363C32.5411 38.1555 32.3687 37.74 32.2652 37.3049L31.4491 36.9908V35.6576L32.2652 35.3435C32.3687 34.9085 32.5412 34.4931 32.7756 34.1124L32.4204 33.3126L33.3632 32.3698L34.1631 32.7251C34.5437 32.4907 34.9591 32.3182 35.3941 32.2147L35.7083 31.3985H37.0415L37.3556 32.2147ZM36.3748 33.9991C35.0906 33.9991 34.0497 35.04 34.0497 36.3243C34.0497 37.6085 35.0906 38.6494 36.3748 38.6494C37.6591 38.6494 38.7 37.6085 38.7 36.3243C38.7 35.04 37.6591 33.9991 36.3748 33.9991ZM38.0603 18.817L38.5617 20.1375C38.5768 20.1772 38.6118 20.2027 38.6543 20.2048L40.0651 20.2735C40.161 20.2782 40.2003 20.3991 40.1254 20.4592L39.0245 21.3441C38.9914 21.3707 38.978 21.412 38.9891 21.4529L39.3597 22.816C39.3849 22.9086 39.2821 22.9834 39.2017 22.9308L38.0199 22.1571C37.9844 22.1339 37.941 22.1339 37.9055 22.1571L36.7237 22.9308C36.6433 22.9834 36.5405 22.9087 36.5658 22.816L36.9363 21.4529C36.9474 21.412 36.934 21.3707 36.901 21.3441L35.8 20.4592C35.7251 20.3991 35.7644 20.2782 35.8603 20.2735L37.2711 20.2048C37.3135 20.2027 37.3486 20.1772 37.3637 20.1375L37.8651 18.817C37.8989 18.7277 38.0264 18.7277 38.0603 18.817ZM19.1963 32.2084C21.7957 31.3031 24.4739 30.1398 27.1245 28.629C29.551 27.246 31.9538 25.5726 34.2515 23.541L34.13 24.375C34.1009 24.5796 34.2432 24.7692 34.4479 24.7983C34.6525 24.8274 34.8421 24.6851 34.8712 24.4805L35.1423 22.6166C35.175 22.3853 34.9885 22.1784 34.753 22.1904L32.8723 22.2925C32.666 22.303 32.5073 22.4788 32.5178 22.6851C32.5283 22.8913 32.704 23.0501 32.9103 23.0395L33.7395 22.9945C31.4861 24.985 29.1317 26.6241 26.7553 27.9786C24.1461 29.4658 21.5095 30.611 18.9501 31.5023C18.7552 31.5703 18.6522 31.7834 18.7202 31.9784C18.7881 32.1734 19.0013 32.2763 19.1963 32.2084ZM38.9041 24.8098H37.0212C36.8921 24.8098 36.7869 24.9151 36.7869 25.0442V30.6485H37.5564L37.921 31.5956C38.1627 31.6746 38.398 31.7722 38.6248 31.8874L39.1385 31.6593V25.0442C39.1385 24.9151 39.0332 24.8098 38.9041 24.8098ZM32.6547 27.0302C32.5256 27.0302 32.4204 27.1355 32.4204 27.2646V32.252L33.1969 31.4754L34.1248 31.8875C34.3338 31.7813 34.5501 31.6901 34.772 31.6146V27.2646C34.772 27.1355 34.6667 27.0302 34.5376 27.0302H32.6547ZM30.1712 29.2506C30.3002 29.2506 30.4055 29.3558 30.4055 29.4849V38.3596C30.4055 38.4887 30.3002 38.594 30.1712 38.594H28.2883C28.1592 38.594 28.0539 38.4887 28.0539 38.3596V29.4849C28.0539 29.3558 28.1592 29.2506 28.2883 29.2506H30.1712ZM25.8046 31.7188C25.9337 31.7188 26.039 31.824 26.039 31.9531V38.3596C26.039 38.4887 25.9337 38.594 25.8046 38.594C25.177 38.594 24.5493 38.594 23.9217 38.594C23.7926 38.594 23.6873 38.4887 23.6873 38.3596C23.6873 36.0823 23.6873 34.2305 23.6873 31.9531C23.6873 31.824 23.7926 31.7188 23.9217 31.7188H25.8046Z" fill="white"/>
</g>
<defs>
<clipPath id="clip0_429_2347">
<rect width="24" height="24" fill="white" transform="translate(18 18)"/>
</clipPath>
</defs>
</svg>
