<svg width="61" height="61" viewBox="0 0 61 61" fill="none" xmlns="http://www.w3.org/2000/svg">
<circle cx="30.0573" cy="30.0573" r="30.0573" fill="#FE947A"/>
<path fill-rule="evenodd" clip-rule="evenodd" d="M30 19.5C26.272 19.5 23.25 22.5221 23.25 26.25C23.25 29.978 26.272 33 30 33C33.728 33 36.75 29.978 36.75 26.25C36.75 22.5221 33.728 19.5 30 19.5ZM30 22.125C30.4142 22.125 30.75 22.4608 30.75 22.875V25.8895L32.3435 27.1643C32.667 27.4231 32.7194 27.8951 32.4607 28.2185C32.2019 28.542 31.7299 28.5944 31.4065 28.3357L29.5315 26.8357C29.3536 26.6933 29.25 26.4778 29.25 26.25V22.875C29.25 22.4608 29.5858 22.125 30 22.125Z" fill="white"/>
<path fill-rule="evenodd" clip-rule="evenodd" d="M22.5 34.5C20.8431 34.5 19.5 35.8432 19.5 37.5C19.5 39.1568 20.8431 40.5 22.5 40.5H37.5C39.1568 40.5 40.5 39.1568 40.5 37.5C40.5 35.8432 39.1568 34.5 37.5 34.5H22.5ZM21.75 37.5C21.75 37.0858 22.0858 36.75 22.5 36.75H27C27.4142 36.75 27.75 37.0858 27.75 37.5C27.75 37.9142 27.4142 38.25 27 38.25H22.5C22.0858 38.25 21.75 37.9142 21.75 37.5Z" fill="white"/>
</svg>
