<svg width="24" height="24" viewBox="0 0 24 24" fill="none" xmlns="http://www.w3.org/2000/svg">
<path d="M6.5624 15.4406V19.5H5.8124V22.1484H2.65771C2.65771 22.1484 2.96709 18.0328 3.79678 17.0109C4.23271 16.4719 5.39522 15.9094 6.5624 15.4406Z" fill="#4B4B4B"/>
<path d="M8.0623 20.9907H6.9373C6.73105 20.9907 6.5623 20.8172 6.56699 20.611C6.56699 20.4047 6.73574 20.2407 6.9373 20.2407H8.0623C8.26855 20.2407 8.4373 20.4141 8.43261 20.6203C8.43261 20.8219 8.26855 20.986 8.0623 20.9907Z" fill="#4B4B4B"/>
<path d="M14.625 14.4422C14.5875 14.0672 14.5969 13.9406 14.5266 13.3359C14.5266 13.3313 14.5266 13.3219 14.5219 13.3172C13.3781 14.2313 11.0859 14.8078 9.50156 13.3969C9.43125 14.1 9.45 14.0719 9.41719 14.4469C9.25781 14.4938 8.90156 14.6016 8.4375 14.7563V19.5H15.5625V14.7469C15.1125 14.5969 14.775 14.4891 14.625 14.4422Z" fill="#4B4B4B"/>
<path d="M17.0623 20.9907H15.9373C15.7311 20.9907 15.5623 20.8172 15.567 20.611C15.567 20.4047 15.7357 20.2407 15.9373 20.2407H17.0623C17.2686 20.2407 17.4373 20.4141 17.4326 20.6203C17.4326 20.8219 17.2686 20.986 17.0623 20.9907Z" fill="#4B4B4B"/>
<path d="M18.1875 22.1485V19.5H17.4375V15.4547C18.6375 15.9469 19.8609 16.5516 20.3016 17.1141C21.0984 18.1219 21.3422 22.1485 21.3422 22.1485H18.1875Z" fill="#4B4B4B"/>
<path d="M16.4905 8.54065C16.4155 9.11252 16.1014 9.62815 15.6233 9.95627C15.4733 10.8844 15.0467 11.7516 14.3952 12.436C13.2045 13.6266 10.992 14.0672 9.63735 12.4641C9.0186 11.7656 8.60142 10.9078 8.44204 9.9844C7.91704 9.67971 7.57485 9.14534 7.51392 8.54534C9.00923 8.72815 10.5139 8.81721 12.0186 8.81252C13.5092 8.81252 15.0045 8.72346 16.4905 8.54065Z" fill="#4B4B4B"/>
<path d="M16.3405 6.54845C16.3499 6.45001 16.3546 6.35157 16.3546 6.25314C16.3077 4.44376 15.0749 2.88282 13.3311 2.41876L13.3452 2.31564C13.3452 2.07657 13.153 1.88439 12.9186 1.8797H11.1514C10.9124 1.8797 10.7202 2.07657 10.7249 2.31564L10.7342 2.39532C8.94362 2.83126 7.66393 4.41564 7.61705 6.25782C7.61705 6.35626 7.62174 6.45939 7.63112 6.55782C7.30768 6.58595 7.05924 6.86251 7.06862 7.18595C7.08737 7.52814 7.35924 7.8047 7.70143 7.81876C9.1358 7.97814 10.5749 8.06251 12.0186 8.06251C13.453 8.06251 14.8827 7.97814 16.303 7.81876C16.6452 7.80001 16.9217 7.52814 16.9358 7.18595C16.9405 6.84376 16.678 6.56251 16.3405 6.54845ZM9.17799 3.51095C9.24362 3.4547 9.31393 3.40782 9.38424 3.35626C9.55299 3.23907 9.78737 3.28126 9.90455 3.45001C10.0217 3.61876 9.97955 3.85314 9.8108 3.97032C9.75455 4.01251 9.70299 4.05001 9.65143 4.0922C9.49205 4.21876 9.25299 4.19532 9.12643 4.03126C8.99518 3.87189 9.01862 3.63751 9.17799 3.51095ZM8.03893 5.25001C8.11862 4.92189 8.25455 4.60782 8.44205 4.32189C8.55455 4.14845 8.78893 4.09689 8.96237 4.21407C9.1358 4.32657 9.18268 4.55626 9.07487 4.7297C8.93424 4.94532 8.8358 5.18439 8.77018 5.43282C8.71862 5.63439 8.51705 5.75626 8.31549 5.7047C8.11393 5.65314 7.99205 5.45157 8.03893 5.25001ZM15.0421 7.0172C14.6202 7.06407 13.1717 7.20939 11.9952 7.20939C11.203 7.20939 10.0733 7.13907 8.95768 7.0172C8.75143 6.99376 8.60612 6.80626 8.62955 6.60001C8.65299 6.39845 8.8358 6.25314 9.03737 6.27189C10.1202 6.38907 11.2264 6.45939 11.9905 6.45939C12.8952 6.45939 14.1139 6.36095 14.953 6.27189C15.1592 6.25314 15.3421 6.40314 15.3608 6.60939C15.3889 6.81095 15.2436 6.98907 15.0421 7.0172Z" fill="#4B4B4B"/>
</svg>
