<svg width="24" height="24" viewBox="0 0 24 24" fill="none" xmlns="http://www.w3.org/2000/svg">
<path d="M21.7968 20.0723H19.117V18.5615C19.117 17.152 17.9699 16.005 16.5604 16.005H15.5887C15.5887 16.0017 15.5892 15.9989 15.5892 15.9956V9.29905C15.5892 9.25874 15.5873 9.21889 15.5859 9.17952L18.0304 6.14061C19.3992 6.02436 20.4773 4.87452 20.4773 3.47624C20.4773 2.00202 19.2773 0.802954 17.8026 0.802954C17.3315 0.802954 16.889 0.925767 16.5046 1.14045L11.482 1.13905C11.3826 1.13905 11.287 1.17842 11.2167 1.24874C11.1463 1.31905 11.107 1.4142 11.107 1.51358V1.61717H7.12681C6.65619 0.849829 5.81009 0.336548 4.84587 0.336548C3.37212 0.336548 2.17259 1.53655 2.17259 3.01124C2.17259 3.21608 2.1965 3.4153 2.24056 3.60702L1.11837 5.54999C0.996968 5.76045 0.966499 5.99577 1.02931 6.22967L1.29369 7.21686C1.31947 7.31249 1.38228 7.39452 1.46806 7.4442L1.75775 7.61155L1.01103 8.90436C0.907437 9.08342 0.968843 9.31264 1.14837 9.41624C1.20697 9.44999 1.27166 9.46639 1.33541 9.46639C1.46478 9.46639 1.59041 9.39936 1.66025 9.27889L2.40697 7.98608L2.69478 8.15249C2.75239 8.18577 2.81712 8.20264 2.88228 8.20264C2.91462 8.20264 2.94744 8.19842 2.97931 8.18999L3.96603 7.92561C4.20181 7.8628 4.39072 7.71795 4.51166 7.50749L5.63103 5.56686C6.29384 5.36295 6.8465 4.9078 7.17978 4.31342H11.107V4.41702C11.107 4.6242 11.2748 4.79202 11.482 4.79202H13.8149L12.5522 6.36092C11.797 6.38436 11.0944 6.6867 10.5637 7.21874C10.012 7.77186 9.7078 8.51061 9.7078 9.29905V15.9956C9.7078 15.9989 9.70826 16.0017 9.70826 16.005H8.55842C7.14889 16.005 6.00186 17.152 6.00186 18.5615V20.0723H3.32201C2.66342 20.0723 2.12764 20.6081 2.12764 21.2667V23.212C2.12764 23.4192 2.29545 23.587 2.50217 23.587H22.6167C22.8238 23.587 22.9912 23.4192 22.9912 23.212V21.2667C22.9912 20.6081 22.4554 20.0723 21.7968 20.0723ZM17.8026 1.55249C18.8643 1.55249 19.7277 2.41545 19.7277 3.47624C19.7277 4.52342 18.8873 5.37749 17.8457 5.40045C17.8401 5.40045 17.834 5.40092 17.8284 5.40092C17.8199 5.40092 17.8115 5.40186 17.8026 5.40186C16.7418 5.40186 15.8788 4.53795 15.8788 3.47624C15.8788 2.41452 16.7418 1.55249 17.8026 1.55249ZM4.84587 4.93545C3.78509 4.93545 2.92212 4.07202 2.92212 3.01124C2.92212 1.95045 3.78509 1.08608 4.84587 1.08608C5.90666 1.08608 6.77009 1.94952 6.77009 3.01124C6.77009 4.07295 5.90712 4.93545 4.84587 4.93545ZM12.9913 3.38624C12.7842 3.38624 12.6163 3.21842 12.6163 3.01124C12.6163 2.80405 12.7842 2.6367 12.9913 2.6367H14.2068C14.414 2.6367 14.5818 2.80452 14.5818 3.01124C14.5818 3.21795 14.414 3.38624 14.2068 3.38624H12.9913ZM12.6482 8.06717C13.5459 8.06717 14.2762 8.79749 14.2762 9.69467C14.2762 10.5919 13.5459 11.3226 12.6482 11.3226C11.7506 11.3226 11.0207 10.5923 11.0207 9.69467C11.0207 8.79702 11.751 8.06717 12.6482 8.06717ZM12.6482 14.1633C13.5459 14.1633 14.2762 14.8936 14.2762 15.7912C14.2762 16.6889 13.5459 17.4187 12.6482 17.4187C11.7506 17.4187 11.0207 16.6884 11.0207 15.7912C11.0207 14.894 11.751 14.1633 12.6482 14.1633Z" fill="#4B4B4B"/>
</svg>
