<svg width="60" height="60" viewBox="0 0 60 60" fill="none" xmlns="http://www.w3.org/2000/svg">
<circle cx="30" cy="30" r="30" fill="#3CD756"/>
<g clip-path="url(#clip0_660_5588)">
<path d="M41.7 38.8064L37.4812 31.7752C37.1022 31.1428 36.4087 30.75 35.6719 30.75C34.9351 30.75 34.2416 31.1428 33.8625 31.7752L29.6445 38.805C29.4474 39.1319 29.3438 39.5068 29.3438 39.8906C29.3438 41.0538 30.29 42 31.4531 42H39.8906C41.0538 42 42 41.0538 42 39.8906C42 39.5068 41.8963 39.1319 41.7 38.8064ZM36.375 39.8906H34.9688V38.4844H36.375V39.8906ZM36.375 37.0781H34.9688V34.2656H36.375V37.0781Z" fill="white"/>
<path d="M35.6719 29.3438C35.901 29.3438 36.1228 29.3885 36.3438 29.4323C36.1704 26.8447 34.913 24.5536 33.0285 22.9976L34.2629 21.2345L33.1107 20.4284L31.8778 22.1893C30.7064 21.4927 29.3697 21.0503 27.9375 20.9404V19.4062H29.3438V18C28.8983 18 25.5629 18 25.125 18V19.4062H26.5312V20.9419C25.0997 21.0517 23.7624 21.4924 22.5901 22.188L21.3581 20.4284L20.2059 21.2345L21.434 22.9885C19.3959 24.6663 18 27.2072 18 30.0469C18 35.0869 22.1944 39.1875 27.2344 39.1875C27.5059 39.1875 27.7731 39.17 28.0386 39.1467C28.1199 38.7725 28.2412 38.409 28.4401 38.0792L32.6568 31.0514C33.2879 29.9981 34.4435 29.3438 35.6719 29.3438ZM32.1562 30.75H26.5292L26.5312 25.125H27.9375L27.9354 29.3438H32.1562V30.75Z" fill="white"/>
</g>
<defs>
<clipPath id="clip0_660_5588">
<rect width="24" height="24" fill="white" transform="translate(18 18)"/>
</clipPath>
</defs>
</svg>
