<svg width="61" height="60" viewBox="0 0 61 60" fill="none" xmlns="http://www.w3.org/2000/svg">
<circle cx="30.4004" cy="30" r="30" fill="#FA597D"/>
<path d="M31.5001 22.5C30.908 22.5008 30.3174 22.5598 29.7369 22.6763C30.0478 23.6584 30.0831 24.707 29.8388 25.7078C29.5946 26.7086 29.0802 27.6231 28.3517 28.3516C27.6233 29.08 26.7088 29.5944 25.708 29.8387C24.7072 30.083 23.6585 30.0477 22.6764 29.7368C22.3128 31.5565 22.5207 33.4442 23.2715 35.1413C24.0223 36.8384 25.2794 38.2619 26.8706 39.2169C28.4617 40.1718 30.3092 40.6116 32.16 40.4759C34.0108 40.3402 35.7744 39.6357 37.2093 38.4589C38.6442 37.2821 39.6802 35.6905 40.1755 33.9021C40.6708 32.1136 40.6011 30.2158 39.976 28.4685C39.3509 26.7212 38.201 25.2098 36.6837 24.1414C35.1664 23.0729 33.3559 22.4996 31.5001 22.5ZM36.0001 32.25H31.5001C31.3012 32.25 31.1104 32.171 30.9698 32.0303C30.8291 31.8897 30.7501 31.6989 30.7501 31.5V27C30.7501 26.8011 30.8291 26.6103 30.9698 26.4697C31.1104 26.329 31.3012 26.25 31.5001 26.25C31.699 26.25 31.8898 26.329 32.0305 26.4697C32.1711 26.6103 32.2501 26.8011 32.2501 27V30.75H36.0001C36.199 30.75 36.3898 30.829 36.5305 30.9697C36.6711 31.1103 36.7501 31.3011 36.7501 31.5C36.7501 31.6989 36.6711 31.8897 36.5305 32.0303C36.3898 32.171 36.199 32.25 36.0001 32.25Z" fill="white"/>
<path d="M29.25 24.375C29.25 23.4108 28.9641 22.4683 28.4284 21.6666C27.8927 20.8649 27.1314 20.2401 26.2406 19.8711C25.3498 19.5021 24.3696 19.4056 23.4239 19.5937C22.4783 19.7818 21.6096 20.2461 20.9279 20.9279C20.2461 21.6096 19.7818 22.4783 19.5937 23.4239C19.4056 24.3696 19.5021 25.3498 19.8711 26.2406C20.2401 27.1314 20.8649 27.8927 21.6666 28.4284C22.4683 28.9641 23.4108 29.25 24.375 29.25C25.6674 29.2484 26.9065 28.7343 27.8204 27.8204C28.7343 26.9065 29.2484 25.6674 29.25 24.375ZM23.625 22.5C23.625 22.3011 23.704 22.1103 23.8447 21.9697C23.9853 21.829 24.1761 21.75 24.375 21.75C24.5739 21.75 24.7647 21.829 24.9053 21.9697C25.046 22.1103 25.125 22.3011 25.125 22.5V24C25.125 24.1989 25.046 24.3897 24.9053 24.5303C24.7647 24.671 24.5739 24.75 24.375 24.75C24.1761 24.75 23.9853 24.671 23.8447 24.5303C23.704 24.3897 23.625 24.1989 23.625 24V22.5ZM23.625 26.25C23.625 26.1017 23.669 25.9567 23.7514 25.8333C23.8338 25.71 23.9509 25.6139 24.088 25.5571C24.225 25.5003 24.3758 25.4855 24.5213 25.5144C24.6668 25.5434 24.8004 25.6148 24.9053 25.7197C25.0102 25.8246 25.0817 25.9582 25.1106 26.1037C25.1395 26.2492 25.1247 26.4 25.0679 26.537C25.0111 26.6741 24.915 26.7912 24.7917 26.8736C24.6683 26.956 24.5233 27 24.375 27C24.1761 27 23.9853 26.921 23.8447 26.7803C23.704 26.6397 23.625 26.4489 23.625 26.25Z" fill="white"/>
</svg>
