<svg width="60" height="60" viewBox="0 0 60 60" fill="none" xmlns="http://www.w3.org/2000/svg">
<circle cx="30" cy="30" r="30" fill="#BF83FF"/>
<g clip-path="url(#clip0_660_5557)">
<path d="M30 18C23.3835 18 18 23.3835 18 30C18 36.6165 23.3835 42 30 42C36.6165 42 42 36.6165 42 30C42 23.3835 36.6165 18 30 18ZM36.7068 26.8421L29.0376 34.4511C28.5865 34.9023 27.8647 34.9323 27.3835 34.4812L23.3233 30.782C22.8421 30.3308 22.812 29.5789 23.2331 29.0977C23.6842 28.6165 24.4361 28.5865 24.9173 29.0376L28.1353 31.985L34.9925 25.1278C35.4737 24.6466 36.2256 24.6466 36.7068 25.1278C37.188 25.609 37.188 26.3609 36.7068 26.8421Z" fill="white"/>
</g>
<defs>
<clipPath id="clip0_660_5557">
<rect width="24" height="24" fill="white" transform="translate(18 18)"/>
</clipPath>
</defs>
</svg>
