<svg width="60" height="60" viewBox="0 0 60 60" fill="none" xmlns="http://www.w3.org/2000/svg">
<circle cx="30" cy="30" r="30" fill="#BF83FF"/>
<path fill-rule="evenodd" clip-rule="evenodd" d="M33.375 21.375V21C33.375 20.586 33.7125 20.25 34.125 20.25C34.5375 20.25 34.875 20.586 34.875 21V21.375H37.5C37.9163 21.375 38.25 21.7106 38.25 22.125V29.1495C40.035 30.0934 41.25 31.9684 41.25 34.125C41.25 37.2296 38.73 39.75 35.625 39.75C33.4688 39.75 31.5937 38.5335 30.6487 36.75H19.5C19.0838 36.75 18.75 36.4144 18.75 36V22.125C18.75 21.7106 19.0838 21.375 19.5 21.375H22.125V21C22.125 20.586 22.4625 20.25 22.875 20.25C23.2875 20.25 23.625 20.586 23.625 21V21.375H25.875V21C25.875 20.586 26.2125 20.25 26.625 20.25C27.0375 20.25 27.375 20.586 27.375 21V21.375H29.625V21C29.625 20.586 29.9625 20.25 30.375 20.25C30.7875 20.25 31.125 20.586 31.125 21V21.375H33.375ZM35.625 30C37.9013 30 39.75 31.8484 39.75 34.125C39.75 36.4016 37.9013 38.25 35.625 38.25C33.3488 38.25 31.5 36.4016 31.5 34.125C31.5 31.8484 33.3488 30 35.625 30ZM34.875 31.875V34.125C34.875 34.3237 34.9538 34.5146 35.0963 34.6553L36.2213 35.7803C36.5138 36.0731 36.9862 36.0731 37.2787 35.7803C37.575 35.4878 37.575 35.0122 37.2787 34.7197L36.375 33.8145V31.875C36.375 31.461 36.0375 31.125 35.625 31.125C35.2125 31.125 34.875 31.461 34.875 31.875ZM22.5 33H23.25C23.6625 33 24 32.664 24 32.25C24 31.836 23.6625 31.5 23.25 31.5H22.5C22.0875 31.5 21.75 31.836 21.75 32.25C21.75 32.664 22.0875 33 22.5 33ZM26.25 33H27C27.4125 33 27.75 32.664 27.75 32.25C27.75 31.836 27.4125 31.5 27 31.5H26.25C25.8375 31.5 25.5 31.836 25.5 32.25C25.5 32.664 25.8375 33 26.25 33ZM22.5 30.375H23.25C23.6625 30.375 24 30.039 24 29.625C24 29.211 23.6625 28.875 23.25 28.875H22.5C22.0875 28.875 21.75 29.211 21.75 29.625C21.75 30.039 22.0875 30.375 22.5 30.375ZM26.25 30.375H27C27.4125 30.375 27.75 30.039 27.75 29.625C27.75 29.211 27.4125 28.875 27 28.875H26.25C25.8375 28.875 25.5 29.211 25.5 29.625C25.5 30.039 25.8375 30.375 26.25 30.375ZM30 30.375H30.75C31.1625 30.375 31.5 30.039 31.5 29.625C31.5 29.211 31.1625 28.875 30.75 28.875H30C29.5875 28.875 29.25 29.211 29.25 29.625C29.25 30.039 29.5875 30.375 30 30.375ZM26.25 27.75H27C27.4125 27.75 27.75 27.414 27.75 27C27.75 26.586 27.4125 26.25 27 26.25H26.25C25.8375 26.25 25.5 26.586 25.5 27C25.5 27.414 25.8375 27.75 26.25 27.75ZM30 27.75H30.75C31.1625 27.75 31.5 27.414 31.5 27C31.5 26.586 31.1625 26.25 30.75 26.25H30C29.5875 26.25 29.25 26.586 29.25 27C29.25 27.414 29.5875 27.75 30 27.75ZM33.75 27.75H34.5C34.9125 27.75 35.25 27.414 35.25 27C35.25 26.586 34.9125 26.25 34.5 26.25H33.75C33.3375 26.25 33 26.586 33 27C33 27.414 33.3375 27.75 33.75 27.75ZM22.5 27.75H23.25C23.6625 27.75 24 27.414 24 27C24 26.586 23.6625 26.25 23.25 26.25H22.5C22.0875 26.25 21.75 26.586 21.75 27C21.75 27.414 22.0875 27.75 22.5 27.75Z" fill="white"/>
</svg>
