<svg width="60" height="60" viewBox="0 0 60 60" fill="none" xmlns="http://www.w3.org/2000/svg">
<g id="Group 427318166">
<circle id="Ellipse 31" cx="30" cy="30" r="30" fill="#87C1FF"/>
<g id="Group">
<path id="Vector" d="M38.7781 21.0127H37.8749V38.2846C37.8749 39.4477 36.9287 40.394 35.7655 40.394H23.0125V41.2971C23.0125 41.6854 23.3273 42.0002 23.7156 42.0002H38.7781C39.1664 42.0002 39.4812 41.6854 39.4812 41.2971V21.7158C39.4812 21.3275 39.1664 21.0127 38.7781 21.0127Z" fill="white"/>
<path id="Vector_2" d="M36.4687 38.2844V18.7031C36.4687 18.3148 36.1539 18 35.7656 18H20.7031C20.3148 18 20 18.3148 20 18.7031V38.2844C20 38.6727 20.3148 38.9875 20.7031 38.9875H35.7656C36.1539 38.9875 36.4687 38.6727 36.4687 38.2844ZM26.4722 34.2628L24.9659 35.769C24.7041 36.0413 24.2334 36.0414 23.9716 35.769L23.2185 35.0159C22.5842 34.3331 23.5296 33.3871 24.2129 34.0215L24.4688 34.2775L25.4779 33.2685C26.1609 32.634 27.1065 33.5799 26.4722 34.2628ZM26.4722 30.1206L24.9659 31.6268C24.7041 31.8992 24.2334 31.8992 23.9716 31.6268L23.2185 30.8737C22.5842 30.1909 23.5296 29.2449 24.2129 29.8793L24.4688 30.1353L25.4779 29.1263C26.1609 28.4918 27.1065 29.4378 26.4722 30.1206ZM26.4722 25.9785L24.9659 27.4847C24.7041 27.757 24.2334 27.7571 23.9716 27.4847L23.2185 26.7315C22.5842 26.0487 23.5296 25.1027 24.2129 25.7372L24.4688 25.9931L25.4779 24.9841C26.1609 24.3496 27.1065 25.2956 26.4722 25.9785ZM26.4722 21.8362L24.9659 23.3425C24.7041 23.6148 24.2334 23.6149 23.9716 23.3425L23.2185 22.5893C22.5842 21.9065 23.5296 20.9605 24.2129 21.595L24.4688 21.8509L25.4779 20.8419C26.1609 20.2074 27.1065 21.1534 26.4722 21.8362ZM32.7531 35.5984H28.9875C28.0569 35.5644 28.0552 34.2269 28.9875 34.1922H32.7531C33.1415 34.1922 33.4563 34.507 33.4563 34.8953C33.4563 35.2836 33.1415 35.5984 32.7531 35.5984ZM32.7531 31.4563H28.9875C28.0569 31.4223 28.0552 30.0847 28.9875 30.05H32.7531C33.1415 30.05 33.4563 30.3648 33.4563 30.7531C33.4563 31.1415 33.1415 31.4563 32.7531 31.4563ZM32.7531 27.3141H28.9875C28.0569 27.2801 28.0552 25.9425 28.9875 25.9078H32.7531C33.1415 25.9078 33.4563 26.2226 33.4563 26.6109C33.4563 26.9992 33.1415 27.3141 32.7531 27.3141ZM32.7531 23.1719H28.9875C28.0569 23.1379 28.0552 21.8003 28.9875 21.7656H32.7531C33.1415 21.7656 33.4563 22.0804 33.4563 22.4687C33.4563 22.857 33.1415 23.1719 32.7531 23.1719Z" fill="white"/>
</g>
</g>
</svg>
