<svg width="24" height="24" viewBox="0 0 24 24" fill="none" xmlns="http://www.w3.org/2000/svg">
<path fill-rule="evenodd" clip-rule="evenodd" d="M1.29287 16.2931C0.902375 16.6836 0.902375 17.3166 1.29287 17.7071L2.29288 18.7071C2.68338 19.0976 3.31638 19.0976 3.70688 18.7071L8.99988 13.4141L12.2929 16.7071C12.6834 17.0976 13.3164 17.0976 13.7069 16.7071L18.9999 11.4141L20.2929 12.7071C20.5579 12.9721 20.9484 13.0666 21.3049 12.9526C21.6619 12.8381 21.9249 12.5341 21.9864 12.1646L22.9864 6.16458C23.0394 5.84608 22.9354 5.52157 22.7069 5.29307C22.4784 5.06457 22.1539 4.96058 21.8354 5.01358L15.8354 6.01358C15.4659 6.07508 15.1619 6.33808 15.0474 6.69508C14.9334 7.05158 15.0279 7.44208 15.2929 7.70708L16.5859 9.00008L12.9999 12.5861L9.70688 9.29308C9.31638 8.90258 8.68337 8.90258 8.29287 9.29308L1.29287 16.2931Z" fill="#2C8D32"/>
</svg>
